<?xml version="1.0" standalone="no"?>
<!DOCTYPE svg PUBLIC "-//W3C//DTD SVG 20010904//EN"
 "http://www.w3.org/TR/2001/REC-SVG-20010904/DTD/svg10.dtd">
<svg version="1.0" xmlns="http://www.w3.org/2000/svg"
 width="500.000000pt" height="500.000000pt" viewBox="0 0 500.000000 500.000000"
 preserveAspectRatio="xMidYMid meet">

<g transform="translate(0.000000,500.000000) scale(0.100000,-0.100000)"
fill="#000000" stroke="none">
<path d="M467 3154 l-26 -28 37 -16 c137 -62 177 -189 119 -370 -45 -141 -52
-175 -51 -260 0 -63 6 -100 23 -142 27 -71 47 -88 37 -32 l-8 39 34 -31 c67
-64 155 -87 238 -63 l45 13 -50 7 c-64 9 -94 21 -132 53 -51 43 -73 103 -73
200 0 73 4 94 34 163 74 174 66 304 -26 408 -35 41 -87 70 -140 80 -31 6 -39
3 -61 -21z"/>
<path d="M757 3025 c3 -11 8 -61 11 -111 4 -85 2 -96 -33 -185 -65 -167 -71
-195 -51 -262 12 -43 29 -70 61 -103 25 -24 50 -44 57 -44 6 0 -7 16 -29 35
-87 74 -96 167 -32 325 39 97 42 112 42 200 1 69 -4 104 -16 130 -10 19 -14
26 -10 15z"/>
<path d="M569 2918 c-11 -13 -32 -40 -45 -61 -52 -80 -92 -107 -163 -107 -73
0 -54 -21 24 -28 47 -4 61 -1 93 20 44 30 122 141 122 175 0 29 -4 29 -31 1z"/>
<path d="M2177 2923 c-14 -13 -7 -50 13 -68 14 -13 28 -16 55 -11 34 7 36 6
25 -13 -11 -22 -52 -37 -69 -26 -7 3 -11 -2 -11 -14 0 -17 6 -21 33 -21 43 0
73 22 87 65 15 45 5 95 -19 95 -11 0 -17 -7 -17 -21 2 -49 -65 -49 -72 0 -3
21 -13 27 -25 14z"/>
<path d="M2350 2904 c-6 -14 -10 -40 -10 -59 0 -63 81 -98 128 -55 47 45 10
117 -55 107 -30 -5 -33 -4 -28 14 10 30 -24 24 -35 -7z m98 -66 c2 -19 -2 -28
-18 -33 -37 -12 -64 27 -38 53 21 21 53 10 56 -20z"/>
<path d="M2615 2898 c-10 -55 -2 -123 15 -123 11 0 16 15 20 55 l5 55 18 -47
c29 -75 41 -78 71 -13 13 30 28 55 31 55 4 0 5 -24 3 -52 -2 -44 0 -53 15 -56
16 -3 18 4 15 75 -3 72 -5 78 -25 81 -17 3 -27 -6 -46 -44 l-24 -47 -24 44
c-32 58 -65 65 -74 17z"/>
<path d="M2893 2918 c-4 -7 -18 -38 -31 -68 -13 -30 -26 -61 -29 -67 -3 -8 3
-13 16 -13 13 0 26 10 33 25 9 20 18 25 48 25 30 0 39 -5 48 -25 12 -25 42
-35 42 -13 0 24 -64 148 -76 148 -10 0 -11 -6 -4 -26 16 -41 12 -54 -16 -54
-20 0 -25 4 -20 16 14 38 18 64 8 64 -6 0 -14 -6 -19 -12z"/>
<path d="M3065 2861 c-7 -73 -3 -91 21 -91 11 0 14 17 14 80 0 62 -3 80 -14
80 -10 0 -16 -20 -21 -69z"/>
<path d="M3180 2850 l0 -80 65 0 c58 0 65 2 65 20 0 17 -7 20 -45 20 -38 0
-45 3 -45 20 0 16 7 20 35 20 46 0 49 27 3 32 -23 2 -36 10 -43 26 -5 12 -15
22 -22 22 -9 0 -13 -22 -13 -80z"/>
<path d="M3340 2849 c0 -71 2 -80 18 -77 11 2 18 14 20 36 4 43 28 42 49 -3
10 -21 24 -35 35 -35 22 0 22 3 3 41 -14 27 -14 31 5 57 23 31 18 62 -10 62
-13 0 -17 -6 -13 -18 6 -24 -19 -44 -49 -40 -17 2 -24 11 -26 31 -2 15 -9 27
-18 27 -11 0 -14 -17 -14 -81z"/>
<path d="M3515 2865 c-8 -72 -3 -95 20 -95 12 0 15 15 15 80 0 62 -3 80 -14
80 -10 0 -16 -19 -21 -65z"/>
<path d="M3621 2873 c-42 -86 -46 -103 -23 -103 10 0 24 11 30 25 9 20 19 25
47 25 28 0 38 -5 47 -25 6 -14 19 -25 30 -25 10 0 18 2 18 4 0 2 -13 37 -30
77 -16 41 -30 75 -30 77 0 1 -7 2 -16 2 -11 0 -14 -5 -10 -16 20 -53 19 -64
-9 -64 -20 0 -25 4 -21 18 2 9 7 27 11 40 13 44 -15 21 -44 -35z"/>
<path d="M3807 2923 c-4 -3 -7 -40 -7 -80 l0 -74 62 3 c50 2 63 6 66 21 3 14
-4 17 -42 17 -44 0 -46 1 -46 29 0 40 -11 91 -20 91 -3 0 -10 -3 -13 -7z"/>
<path d="M3952 2908 c2 -13 21 -34 46 -51 40 -27 42 -31 28 -45 -12 -13 -22
-14 -51 -5 -31 10 -35 9 -35 -7 0 -35 87 -43 120 -10 34 34 23 63 -32 91 -21
11 -41 26 -45 34 -9 24 -35 18 -31 -7z"/>
<path d="M1397 2914 c-4 -4 -7 -29 -7 -55 0 -59 26 -89 77 -89 51 0 73 29 73
95 0 48 -2 55 -20 55 -17 0 -20 -7 -20 -49 0 -92 -61 -97 -70 -6 -5 46 -17 64
-33 49z"/>
<path d="M1588 2909 c-10 -5 -18 -20 -18 -33 0 -18 9 -27 40 -39 53 -20 53
-40 0 -35 -32 3 -40 0 -38 -12 4 -19 69 -26 98 -10 34 18 21 51 -28 79 -33 17
-40 26 -30 32 7 5 25 6 41 3 15 -3 27 -1 27 4 0 22 -62 29 -92 11z"/>
<path d="M1720 2861 c0 -51 3 -62 22 -75 26 -18 61 -20 89 -6 25 14 53 80 39
94 -5 5 -10 18 -10 28 0 10 -7 18 -15 18 -8 0 -15 -9 -15 -20 0 -10 -8 -24
-17 -29 -15 -9 -15 -12 -5 -20 23 -14 10 -46 -18 -46 -26 0 -37 23 -39 83 -1
21 -6 32 -16 32 -12 0 -15 -13 -15 -59z"/>
<path d="M1900 2843 c0 -66 2 -73 20 -73 18 0 20 7 20 61 l0 60 33 -3 c32 -3
32 -3 32 -58 0 -44 3 -55 18 -58 15 -3 17 5 17 62 0 77 -8 84 -87 83 l-53 -1
0 -73z"/>
<path d="M4197 2913 c-16 -16 -4 -23 38 -23 39 0 45 -3 51 -25 4 -18 1 -32
-11 -45 -24 -26 -33 -25 -41 5 -4 15 -13 25 -24 25 -14 0 -16 -6 -11 -37 6
-36 8 -38 45 -37 109 4 106 144 -3 144 -21 0 -41 -3 -44 -7z"/>
<path d="M4347 2913 c-15 -14 -6 -23 23 -23 l30 0 0 -61 c0 -52 2 -60 18 -57
14 3 17 14 17 59 0 33 -6 63 -14 73 -13 16 -62 22 -74 9z"/>
<path d="M4493 2903 c-16 -15 -19 -28 -15 -76 3 -47 7 -57 20 -55 14 3 16 14
14 62 l-3 57 33 -3 c33 -3 33 -3 36 -60 3 -50 6 -58 22 -58 17 0 20 7 20 55 0
42 -5 60 -20 75 -25 25 -81 26 -107 3z"/>
<path d="M4680 2907 c-20 -10 -26 -21 -28 -59 -3 -39 1 -49 20 -62 29 -20 68
-21 68 -1 0 8 -9 15 -20 15 -12 0 -25 10 -32 26 -17 36 0 59 43 59 l34 0 3
-57 c3 -50 6 -58 22 -58 17 0 20 7 20 45 0 24 -5 55 -11 69 -17 36 -72 47
-119 23z"/>
<path d="M242 2849 c-10 -25 -5 -32 38 -62 32 -22 119 -23 146 -1 18 15 18 15
-3 9 -39 -11 -95 7 -134 42 l-39 35 -8 -23z"/>
<path d="M591 2855 c0 -5 -19 -33 -40 -61 -28 -37 -34 -50 -21 -47 35 9 72 58
67 89 -2 16 -5 25 -6 19z"/>
<path d="M940 2768 c-36 -28 -64 -54 -63 -57 1 -3 15 -9 32 -12 81 -17 191
-122 176 -169 -4 -11 -10 -20 -14 -20 -4 0 -17 -17 -28 -37 -50 -89 -125 -130
-213 -117 l-35 5 44 -20 c88 -42 150 -22 222 74 23 30 44 53 47 50 3 -3 -16
-32 -41 -65 -41 -53 -41 -69 2 -36 35 27 -11 -34 -54 -71 -52 -46 -139 -83
-198 -84 l-42 0 45 -15 c139 -43 296 27 359 162 32 67 29 178 -6 249 -29 61
-81 114 -142 146 -46 23 -45 23 -31 50 14 24 16 26 -60 -33z"/>
<path d="M180 2765 c0 -8 -9 -24 -21 -36 l-21 -21 28 -29 c16 -16 53 -42 84
-56 48 -24 67 -27 153 -26 l97 0 1 -31 2 -31 4 30 c5 35 28 121 39 150 7 17 5
18 -7 8 -9 -7 -43 -19 -76 -28 -48 -12 -71 -13 -108 -5 -60 13 -122 45 -137
70 -15 24 -38 26 -38 5z"/>
<path d="M3143 2630 c0 -41 2 -58 4 -37 2 20 2 54 0 75 -2 20 -4 3 -4 -38z"/>
<path d="M3960 2672 c0 -26 -3 -29 -25 -24 -33 6 -55 -14 -55 -49 0 -31 15
-39 68 -37 l32 1 0 63 c0 35 -4 66 -10 69 -6 4 -10 -6 -10 -23z m-10 -47 c15
-18 7 -43 -16 -52 -24 -9 -46 24 -33 48 12 23 32 24 49 4z"/>
<path d="M2200 2676 c-6 -8 -10 -25 -8 -38 2 -18 10 -24 36 -26 39 -4 41 -16
5 -36 -26 -14 -26 -15 -6 -16 47 0 75 98 34 120 -27 14 -46 13 -61 -4z m55
-26 c0 -16 -6 -26 -18 -28 -19 -4 -32 20 -23 44 9 25 41 13 41 -16z"/>
<path d="M2317 2672 c-20 -22 -22 -83 -5 -100 31 -31 82 -3 76 40 -2 19 -9 23
-36 23 -39 0 -40 23 -2 42 23 12 23 13 4 13 -11 0 -28 -8 -37 -18z m53 -57
c10 -12 10 -18 0 -30 -25 -30 -61 -7 -46 30 3 8 12 15 19 15 8 0 20 -7 27 -15z"/>
<path d="M2480 2623 c0 -67 15 -79 22 -18 l3 30 21 -40 21 -39 21 44 20 45 1
-42 c2 -70 21 -49 21 22 0 36 -4 65 -9 65 -5 0 -20 -23 -33 -51 l-23 -52 -24
52 c-14 28 -28 51 -33 51 -4 0 -8 -30 -8 -67z"/>
<path d="M2990 2680 c0 -5 5 -10 11 -10 5 0 7 5 4 10 -3 6 -8 10 -11 10 -2 0
-4 -4 -4 -10z"/>
<path d="M3350 2670 c-41 -41 -13 -110 45 -110 19 0 37 5 41 11 5 8 -1 10 -18
6 -32 -8 -68 17 -68 48 0 31 36 56 68 48 17 -4 23 -2 18 6 -11 18 -64 13 -86
-9z"/>
<path d="M3730 2626 l0 -66 40 0 c22 0 40 5 40 10 0 6 -13 10 -30 10 -29 0
-30 1 -30 49 0 28 -4 53 -10 56 -6 4 -10 -18 -10 -59z"/>
<path d="M2737 2657 c-2 -7 -2 -30 2 -52 5 -29 12 -41 26 -43 15 -2 16 -1 7 6
-8 5 -13 24 -12 43 3 48 1 59 -9 59 -5 0 -11 -6 -14 -13z"/>
<path d="M3819 2658 c-5 -51 9 -98 29 -97 10 0 12 3 5 6 -15 6 -17 59 -3 68 6
4 5 12 -4 21 -18 17 -26 18 -27 2z"/>
<path d="M768 2633 c-37 -40 -48 -66 -48 -115 0 -110 122 -184 220 -133 40 20
38 27 -4 19 -101 -18 -196 87 -166 184 7 20 19 45 28 55 25 28 -2 19 -30 -10z"/>
<path d="M2640 2642 c0 -6 8 -8 18 -5 10 2 25 -3 33 -13 10 -13 10 -16 1 -10
-7 4 -24 5 -38 2 -19 -5 -25 -12 -22 -29 2 -18 11 -23 41 -25 l38 -3 -3 43
c-3 40 -5 43 -35 46 -18 2 -33 -1 -33 -6z m60 -51 c0 -9 -24 -21 -41 -21 -5 0
-9 7 -9 15 0 9 9 15 25 15 14 0 25 -4 25 -9z"/>
<path d="M2812 2638 c-7 -7 -12 -21 -12 -33 0 -12 5 -26 12 -33 13 -13 68 -17
68 -4 0 4 -12 8 -27 7 -14 0 -28 6 -30 13 -3 8 7 12 31 12 23 0 36 5 36 13 0
19 -21 37 -45 37 -12 0 -26 -5 -33 -12z m56 -15 c2 -9 -7 -13 -28 -13 -28 0
-31 2 -20 15 15 18 41 16 48 -2z"/>
<path d="M2910 2603 c0 -23 5 -43 10 -43 6 0 10 13 10 29 0 18 8 34 22 43 21
14 21 15 -10 15 -31 0 -32 -2 -32 -44z"/>
<path d="M2985 2638 c-9 -22 -2 -68 10 -71 14 -3 19 63 6 76 -7 7 -12 5 -16
-5z"/>
<path d="M3050 2643 c42 -14 44 -16 15 -22 -24 -5 -30 -11 -30 -31 0 -22 4
-25 38 -26 35 -1 37 1 37 30 0 39 -16 56 -49 55 -15 0 -19 -3 -11 -6z m38 -55
c-7 -19 -38 -22 -38 -4 0 10 9 16 21 16 12 0 19 -5 17 -12z"/>
<path d="M3181 2636 c-12 -15 -2 -27 32 -39 24 -9 11 -30 -14 -24 -11 3 -19 1
-19 -4 0 -15 57 -10 63 5 6 15 -6 29 -36 39 -24 9 -11 30 14 24 11 -3 19 -1
19 4 0 14 -46 11 -59 -5z"/>
<path d="M3472 2638 c-7 -7 -12 -21 -12 -33 0 -12 5 -26 12 -33 7 -7 21 -12
33 -12 12 0 26 5 33 12 7 7 12 21 12 33 0 12 -5 26 -12 33 -7 7 -21 12 -33 12
-12 0 -26 -5 -33 -12z m62 -20 c8 -14 7 -21 -6 -34 -30 -30 -75 9 -48 42 16
18 39 15 54 -8z"/>
<path d="M1390 2610 c0 -6 127 -10 360 -10 233 0 360 4 360 10 0 6 -127 10
-360 10 -233 0 -360 -4 -360 -10z"/>
<path d="M4090 2610 c0 -6 127 -10 360 -10 233 0 360 4 360 10 0 6 -127 10
-360 10 -233 0 -360 -4 -360 -10z"/>
<path d="M3616 2554 c-10 -25 1 -29 14 -5 6 12 7 21 1 21 -5 0 -12 -7 -15 -16z"/>
<path d="M830 2310 c8 -5 24 -10 34 -10 26 0 18 6 -19 14 -22 5 -26 4 -15 -4z"/>
</g>
</svg>
