<?xml version="1.0" standalone="no"?>
<!DOCTYPE svg PUBLIC "-//W3C//DTD SVG 20010904//EN"
 "http://www.w3.org/TR/2001/REC-SVG-20010904/DTD/svg10.dtd">
<svg version="1.0" xmlns="http://www.w3.org/2000/svg"
 width="500.000000pt" height="143.000000pt" viewBox="0 0 500.000000 143.000000"
 preserveAspectRatio="xMidYMid meet">

<g transform="translate(0.000000,143.000000) scale(0.100000,-0.100000)"
fill="#000000" stroke="none">
<path d="M70 705 l0 -465 460 0 460 0 2 178 3 177 13 -130 c19 -190 11 -175
85 -175 l62 0 105 195 c58 106 106 190 108 186 2 -6 -45 -238 -73 -359 -5 -22
-4 -22 100 -22 58 0 105 3 105 8 0 4 27 133 60 287 33 154 60 283 60 288 0 4
-54 7 -119 7 l-119 0 -77 -145 c-43 -79 -83 -152 -90 -161 -10 -14 -14 7 -23
112 -7 71 -12 143 -12 161 l0 32 -92 3 -93 3 -3 143 -3 142 -459 0 -460 0 0
-465z m389 237 c53 -39 64 -66 64 -147 -1 -142 -72 -234 -199 -256 -46 -8 -73
-7 -115 3 -52 13 -54 14 -53 46 3 56 9 62 64 62 45 0 50 -2 50 -22 1 -91 73
-36 95 71 l7 35 -26 -17 c-14 -10 -46 -20 -70 -23 -41 -6 -48 -4 -75 24 -27
26 -31 38 -31 82 0 83 34 130 112 156 55 18 144 11 177 -14z m454 6 c15 -8 18
-17 12 -46 -10 -51 -10 -52 -66 -52 -44 0 -49 2 -49 23 0 12 -4 28 -9 36 -19
29 -63 -31 -76 -102 l-7 -38 33 20 c48 29 109 28 138 -3 l23 -24 -17 -79 c-9
-43 -19 -85 -21 -94 -13 -46 -175 -70 -242 -35 -53 27 -67 59 -66 151 2 142
61 225 181 255 42 10 138 3 166 -12z"/>
<path d="M334 895 c-10 -15 -20 -52 -22 -82 -4 -52 -4 -55 18 -51 32 4 61 63
58 113 -4 49 -29 58 -54 20z"/>
<path d="M724 725 c-20 -31 -31 -129 -16 -139 32 -19 66 38 66 113 1 55 -23
67 -50 26z"/>
<path d="M4301 618 c-35 -167 -66 -309 -68 -315 -4 -10 18 -13 90 -13 82 0 96
2 101 18 9 28 126 587 126 600 0 8 -28 12 -93 12 l-93 0 -63 -302z"/>
<path d="M3613 879 c-62 -18 -82 -81 -38 -124 53 -54 165 -14 165 59 0 56 -58
86 -127 65z"/>
<path d="M2326 784 c-29 -35 -111 -84 -141 -84 -14 0 -35 -36 -35 -61 0 -5 16
-9 35 -9 39 0 38 2 24 -60 -42 -176 -41 -247 5 -268 37 -17 107 -23 156 -15
39 7 45 12 48 35 3 21 -2 28 -27 36 -17 6 -31 16 -31 22 0 6 11 62 25 126 14
64 25 117 25 120 0 2 17 4 39 4 35 0 39 3 43 30 4 28 3 30 -30 30 l-35 0 7 43
c4 23 9 52 13 65 5 21 2 22 -43 21 -43 0 -52 -5 -78 -35z"/>
<path d="M1775 693 c-54 -11 -105 -36 -110 -54 -3 -10 -8 -28 -11 -39 -5 -19
-1 -20 64 -20 63 0 70 2 80 25 13 28 57 43 81 28 10 -6 16 -24 16 -49 0 -44
-14 -51 -101 -53 -69 -1 -146 -26 -173 -55 -15 -15 -25 -42 -28 -70 -13 -116
114 -160 231 -81 l37 25 10 -30 c11 -30 12 -30 84 -30 l73 0 16 68 c55 242 47
293 -51 328 -35 12 -173 17 -218 7z m105 -215 c0 -7 -5 -30 -10 -50 -12 -43
-40 -63 -76 -54 -35 9 -34 67 2 95 29 23 84 28 84 9z"/>
<path d="M2685 690 c-123 -31 -184 -107 -185 -225 0 -125 67 -180 220 -179 49
0 109 7 141 17 55 16 57 19 68 61 6 25 11 50 11 55 0 7 -29 11 -75 11 -41 0
-75 -4 -75 -9 0 -5 -12 -24 -26 -41 -48 -57 -95 -19 -80 63 l7 37 133 0 134 0
11 31 c28 80 5 147 -59 173 -43 17 -169 21 -225 6z m123 -112 l3 -58 -56 0
c-30 0 -55 2 -55 5 0 14 33 81 47 98 9 10 26 17 37 15 18 -3 21 -11 24 -60z"/>
<path d="M3311 679 c-19 -11 -42 -30 -52 -42 l-17 -22 -7 38 -7 37 -77 0 -77
0 -38 -177 c-20 -98 -40 -188 -43 -200 -5 -23 -4 -23 90 -23 l95 0 17 78 c44
207 48 217 77 220 22 3 30 -2 38 -23 5 -14 10 -37 10 -51 0 -22 4 -24 50 -24
43 0 50 3 55 23 38 164 37 161 19 174 -27 20 -94 16 -133 -8z"/>
<path d="M3895 693 c-11 -2 -39 -11 -61 -19 -36 -13 -43 -20 -52 -54 l-10 -40
67 0 c62 0 69 2 79 25 13 28 57 43 81 28 17 -10 29 -93 14 -93 -94 -3 -199
-22 -235 -42 -70 -38 -88 -122 -38 -175 46 -50 139 -48 207 3 17 13 34 24 37
24 2 0 7 -14 11 -30 l7 -30 73 0 c61 0 75 3 79 18 19 62 46 214 46 258 0 64
-29 105 -88 122 -37 11 -174 15 -217 5z m105 -223 c0 -40 -28 -89 -54 -96 -55
-13 -76 47 -31 91 31 32 85 35 85 5z"/>
<path d="M4670 691 c-83 -26 -120 -68 -120 -139 0 -52 32 -85 102 -106 53 -15
88 -41 88 -64 0 -6 -11 -19 -24 -27 -31 -20 -63 -6 -72 30 -6 23 -11 25 -64
25 -63 0 -61 2 -75 -66 -6 -31 -5 -32 42 -42 86 -19 137 -22 209 -13 123 15
174 56 174 136 0 50 -40 89 -116 110 -71 21 -84 30 -84 61 0 16 8 28 25 36 29
13 45 3 48 -31 1 -19 7 -21 63 -21 l62 0 7 40 c4 21 4 43 1 48 -16 26 -202 42
-266 23z"/>
<path d="M3486 503 c-21 -103 -40 -193 -43 -200 -4 -10 17 -13 91 -13 53 0 96
1 96 3 0 1 20 91 44 200 l43 197 -96 0 -96 0 -39 -187z"/>
</g>
</svg>
